<?xml version="1.0" standalone="no"?>
<!DOCTYPE svg PUBLIC "-//W3C//DTD SVG 20010904//EN"
 "http://www.w3.org/TR/2001/REC-SVG-20010904/DTD/svg10.dtd">
<svg version="1.0" xmlns="http://www.w3.org/2000/svg"
 width="745.000000pt" height="197.000000pt" viewBox="0 0 745.000000 197.000000"
 preserveAspectRatio="xMidYMid meet">

<g transform="translate(0.000000,197.000000) scale(0.100000,-0.100000)"
fill="#000000" stroke="none">
<path d="M2900 1480 c0 -304 2 -350 15 -350 13 0 15 46 15 350 0 304 -2 350
-15 350 -13 0 -15 -46 -15 -350z"/>
<path d="M4515 1809 c-9 -26 16 -55 40 -45 25 9 16 60 -12 64 -15 2 -23 -3
-28 -19z"/>
<path d="M5180 1480 c0 -304 2 -350 15 -350 13 0 15 46 15 350 0 304 -2 350
-15 350 -13 0 -15 -46 -15 -350z"/>
<path d="M300 1788 c-75 -29 -160 -116 -189 -193 -20 -54 -21 -71 -21 -630 0
-563 0 -575 21 -632 23 -61 88 -138 146 -174 75 -47 104 -49 678 -49 436 0
550 3 594 14 97 26 176 94 222 192 l29 61 -2 249 c-3 240 -4 249 -23 252 -13
2 -36 -14 -67 -45 l-46 -48 -4 -190 c-4 -206 -8 -223 -65 -277 -61 -59 -53
-58 -641 -58 l-538 0 -44 22 c-24 13 -58 40 -74 61 l-31 39 -3 569 c-2 553 -2
570 18 608 27 54 76 89 141 101 35 7 248 10 592 9 l538 -2 35 34 c42 40 41 68
-1 89 -26 13 -117 15 -620 17 -580 2 -591 2 -645 -19z"/>
<path d="M2280 1465 l0 -335 163 0 c184 0 247 12 289 57 34 37 52 95 45 150
-6 53 -29 89 -80 122 l-36 24 34 31 c60 57 69 146 22 217 -41 61 -70 69 -264
69 l-173 0 0 -335z m353 291 c56 -23 72 -50 72 -122 0 -59 -3 -66 -33 -96
l-32 -33 -160 -3 -160 -3 0 135 0 136 140 0 c96 0 151 -4 173 -14z m33 -316
c55 -27 78 -73 72 -146 -3 -34 -12 -62 -24 -75 -40 -45 -71 -52 -236 -57
l-158 -5 0 152 0 151 152 0 c132 0 157 -3 194 -20z"/>
<path d="M4213 1763 c-8 -3 -13 -24 -13 -59 0 -53 0 -54 -30 -54 -20 0 -30 -5
-30 -15 0 -10 10 -15 30 -15 l30 0 1 -192 c0 -211 7 -249 52 -282 35 -26 108
-27 155 -2 27 14 31 20 22 31 -10 12 -15 12 -36 -2 -33 -21 -99 -20 -124 2
-32 29 -40 80 -40 267 l0 177 82 3 c52 2 83 7 85 15 3 9 -19 13 -79 15 l-83 3
-5 56 c-3 39 -9 54 -17 52z"/>
<path d="M1835 1730 c-11 -5 -198 -186 -415 -404 -217 -218 -399 -396 -404
-396 -6 0 -87 77 -182 170 -215 214 -212 213 -357 61 -71 -74 -77 -84 -77
-123 0 -41 3 -44 283 -325 l282 -283 45 0 45 0 518 518 c613 613 569 544 435
685 -46 47 -96 90 -111 96 -33 13 -35 13 -62 1z"/>
<path d="M3745 1642 c-113 -53 -164 -210 -119 -363 34 -114 143 -176 265 -150
74 16 113 40 104 63 -5 14 -12 12 -51 -9 -60 -34 -146 -35 -203 -3 -45 26 -85
91 -96 158 l-7 42 212 0 212 0 -6 58 c-10 81 -49 157 -98 190 -54 35 -153 42
-213 14z m171 -31 c58 -26 87 -71 103 -158 l8 -43 -193 0 -193 0 5 33 c3 17
18 56 32 86 45 92 143 125 238 82z"/>
<path d="M4830 1644 c-45 -20 -87 -59 -113 -109 -19 -34 -22 -57 -22 -145 0
-93 3 -111 26 -155 18 -35 39 -59 73 -80 42 -26 58 -29 120 -29 97 0 182 44
150 77 -4 3 -18 -3 -33 -13 -61 -44 -170 -44 -233 1 -52 37 -73 93 -73 194 0
75 4 98 24 138 46 95 160 134 255 87 25 -12 50 -19 56 -15 32 20 -65 65 -140
64 -30 0 -71 -7 -90 -15z"/>
<path d="M3080 1463 c1 -195 9 -243 47 -285 32 -36 75 -52 143 -52 74 0 134
25 169 71 l20 28 1 -47 c0 -36 4 -48 15 -48 13 0 15 36 15 260 0 220 -2 260
-14 260 -12 0 -15 -33 -18 -193 l-3 -194 -29 -37 c-39 -52 -84 -69 -168 -64
-57 3 -72 8 -97 32 -42 40 -51 92 -51 285 0 145 -2 171 -15 171 -13 0 -15 -27
-15 -187z"/>
<path d="M4520 1390 c0 -253 1 -260 20 -260 19 0 20 7 20 260 0 253 -1 260
-20 260 -19 0 -20 -7 -20 -260z"/>
<path d="M5350 1525 l-125 -125 135 -135 c83 -83 142 -135 155 -135 14 0 -18
38 -115 135 l-135 135 125 125 c90 90 119 125 105 125 -13 0 -68 -48 -145
-125z"/>
<path d="M5040 480 c0 -304 2 -350 15 -350 13 0 15 46 15 350 0 304 -2 350
-15 350 -13 0 -15 -46 -15 -350z"/>
<path d="M2459 796 c-139 -49 -202 -155 -202 -336 1 -210 104 -331 286 -334
94 -1 133 8 191 44 38 25 46 33 36 45 -9 11 -20 8 -62 -18 -45 -28 -61 -32
-137 -35 -79 -3 -91 -1 -141 25 -102 53 -148 160 -137 316 9 140 74 231 186
264 90 26 217 1 260 -51 11 -13 17 -14 28 -5 11 10 10 16 -8 35 -52 55 -211
82 -300 50z"/>
<path d="M5253 763 c-8 -3 -13 -24 -13 -59 0 -53 0 -54 -30 -54 -20 0 -30 -5
-30 -15 0 -10 10 -15 30 -15 l30 0 1 -192 c0 -211 7 -249 52 -282 35 -26 108
-27 155 -2 27 14 31 20 22 31 -10 12 -15 12 -36 -2 -33 -21 -99 -20 -124 2
-32 29 -40 80 -40 267 l0 177 82 3 c52 2 83 7 85 15 3 9 -19 13 -79 15 l-83 3
-5 56 c-3 39 -9 54 -17 52z"/>
<path d="M6703 763 c-8 -3 -13 -24 -13 -59 0 -53 0 -54 -30 -54 -20 0 -30 -5
-30 -15 0 -10 10 -15 30 -15 l30 0 1 -192 c0 -211 7 -249 52 -282 35 -26 108
-27 155 -2 27 14 31 20 22 31 -10 12 -15 12 -36 -2 -33 -21 -99 -20 -124 2
-32 29 -40 80 -40 267 l0 177 82 3 c52 2 83 7 85 15 3 9 -19 13 -79 15 l-83 3
-5 56 c-3 39 -9 54 -17 52z"/>
<path d="M2990 645 c-53 -24 -88 -63 -110 -122 -24 -65 -27 -177 -5 -249 33
-112 137 -169 262 -144 44 9 64 21 97 53 115 116 91 389 -40 452 -52 25 -158
30 -204 10z m177 -34 c83 -38 129 -163 104 -283 -24 -112 -86 -168 -185 -168
-78 0 -122 23 -160 84 -37 59 -47 164 -23 247 35 117 152 171 264 120z"/>
<path d="M3565 641 c-23 -10 -53 -33 -68 -50 l-27 -33 0 46 c0 34 -4 46 -15
46 -13 0 -15 -36 -15 -260 0 -224 2 -260 15 -260 13 0 15 27 15 182 0 209 11
248 78 290 51 32 167 33 209 2 57 -41 63 -70 63 -281 0 -168 2 -193 16 -193
13 0 15 26 12 214 -3 198 -5 217 -24 243 -49 67 -173 93 -259 54z"/>
<path d="M4053 641 c-68 -32 -99 -101 -69 -159 23 -44 48 -59 173 -98 126 -40
163 -67 163 -118 0 -107 -172 -148 -290 -70 -30 20 -44 24 -52 16 -16 -16 3
-36 65 -63 40 -18 70 -23 127 -23 121 0 180 45 180 136 0 74 -37 107 -167 148
-56 18 -115 41 -132 51 -61 37 -60 97 2 143 23 17 43 21 101 21 63 0 78 -4
115 -28 29 -19 47 -25 53 -19 16 16 0 32 -56 58 -64 30 -152 32 -213 5z"/>
<path d="M5655 646 c-66 -21 -88 -35 -76 -50 9 -11 19 -10 51 6 22 11 69 23
104 25 117 10 186 -45 186 -149 l0 -43 -105 -2 c-134 -2 -202 -21 -244 -68
-26 -30 -31 -44 -31 -86 0 -102 60 -152 185 -153 80 -1 132 14 169 49 l26 24
0 -34 c0 -25 4 -35 16 -35 13 0 15 26 12 214 -3 244 -6 251 -88 294 -51 25
-139 29 -205 8z m243 -242 c20 -6 22 -12 22 -84 0 -93 -16 -119 -88 -147 -91
-35 -207 -17 -246 39 -34 48 -14 125 40 159 46 28 214 48 272 33z"/>
<path d="M6235 641 c-23 -10 -53 -33 -68 -50 l-27 -33 0 46 c0 34 -4 46 -15
46 -13 0 -15 -36 -15 -260 0 -224 2 -260 15 -260 13 0 15 27 15 182 0 209 11
248 78 290 51 32 167 33 209 2 57 -41 63 -70 63 -281 0 -168 2 -193 16 -193
13 0 15 26 12 214 -3 198 -5 217 -24 243 -49 67 -173 93 -259 54z"/>
<path d="M7073 641 c-68 -32 -99 -101 -69 -159 23 -44 48 -59 173 -98 126 -40
163 -67 163 -118 0 -107 -172 -148 -290 -70 -30 20 -44 24 -52 16 -16 -16 3
-36 65 -63 40 -18 70 -23 127 -23 121 0 180 45 180 136 0 74 -37 107 -167 148
-56 18 -115 41 -132 51 -61 37 -60 97 2 143 23 17 43 21 101 21 63 0 78 -4
115 -28 29 -19 47 -25 53 -19 16 16 0 32 -56 58 -64 30 -152 32 -213 5z"/>
<path d="M4480 463 c1 -195 9 -243 47 -285 32 -36 75 -52 143 -52 74 0 134 25
169 71 l20 28 1 -47 c0 -36 4 -48 15 -48 13 0 15 36 15 260 0 220 -2 260 -14
260 -12 0 -15 -33 -18 -193 l-3 -194 -29 -37 c-39 -52 -84 -69 -168 -64 -57 3
-72 8 -97 32 -42 40 -51 92 -51 285 0 145 -2 171 -15 171 -13 0 -15 -27 -15
-187z"/>
</g>
</svg>
