<svg width="120" height="120" viewBox="0 0 120 120" fill="none" xmlns="http://www.w3.org/2000/svg">
<circle cx="60" cy="60" r="60" fill="#0B67BC"/>
<path d="M120 60C120 73.3987 115.515 86.4118 107.26 96.9655C99.0056 107.519 87.4558 115.006 74.4516 118.234L37.5 74C40.2938 73.3067 68.3799 70.209 70.1534 67.9416C71.9268 65.6743 76 42.8785 76 40L120 60Z" fill="black" fill-opacity="0.18"/>
<path d="M41.7069 58.4258V53.0547C41.7069 52.462 42.1884 51.9805 42.7812 51.9805H49.2265C49.8192 51.9805 50.3007 52.462 50.3007 53.0547V67.0195H54.5976V46.6094C54.5976 46.0166 55.079 45.5352 55.6718 45.5352H64.2655C64.8597 45.5352 65.3397 46.0166 65.3397 46.6094V64.8711H69.6366V53.0547C69.6366 52.462 70.1166 51.9805 70.7108 51.9805H77.1561C77.7503 51.9805 78.2303 52.462 78.2303 53.0547V58.4258H86.7972C86.2299 44.1135 74.4173 32.6445 59.9688 32.6445C45.5202 32.6445 33.7075 44.1137 33.1403 58.4258H41.7069Z" fill="white"/>
<path d="M77.1563 60.5742C76.5621 60.5742 76.0821 60.0927 76.0821 59.5V54.1289H71.7852V65.9453C71.7852 66.5395 71.3051 67.0195 70.711 67.0195H64.2657C63.6715 67.0195 63.1914 66.5395 63.1914 65.9453V47.6836H56.7461V68.0938C56.7461 68.6879 56.2646 69.168 55.6719 69.168H49.2266C48.6339 69.168 48.1524 68.6879 48.1524 68.0938V54.1289H43.8555V59.5C43.8555 60.0927 43.374 60.5742 42.7813 60.5742H33.1402C33.7075 74.8853 45.5201 86.3555 59.9687 86.3555C74.4172 86.3555 86.2299 74.8848 86.7971 60.5742H77.1563Z" fill="white"/>
</svg>
